<svg xmlns="http://www.w3.org/2000/svg" id="Layer_1" viewBox="0 0 237.39 226.72" width="237.39" height="226.72"><defs><style>.cls-1{fill:#673200}.cls-2{fill:#ffaaca}.cls-3{fill:#c65b00}.cls-4{fill:none;stroke:#000;stroke-linecap:round;stroke-linejoin:round;stroke-width:3px}</style></defs><circle cx="34.6" cy="34.6" r="34.6" class="cls-1"/><circle cx="37.05" cy="43.36" r="14.84" class="cls-2"/><circle cx="202.79" cy="34.6" r="34.6" class="cls-1"/><circle cx="200.34" cy="43.36" r="14.84" class="cls-2"/><circle cx="118.7" cy="118.59" r="108.13" class="cls-1"/><circle cx="118.7" cy="158.08" r="42.32" class="cls-3"/><path d="M174 35.36a65.62 65.62 0 0 0 61 113.25 108.21 108.21 0 0 0-61-113.25zM19.87 133.23A109 109 0 0 0 21 148.61 65.61 65.61 0 0 0 82 35.36a108.13 108.13 0 0 0-62.13 97.87z" class="cls-3" transform="translate(-9.3 -14.64)"/><path d="M101.25 187.09a37.24 37.24 0 0 0 52.69 0" class="cls-4" transform="translate(-9.3 -14.64)"/><circle id="_Ellipse_" cx="118.7" cy="123.45" r="12.96" class="cls-2"/><circle id="_Ellipse_2" cx="75.47" cy="91.86" r="9.31"/><circle id="_Ellipse_3" cx="161.93" cy="91.86" r="9.31"/></svg>